<svg width="42" height="44" viewBox="0 0 42 44" fill="none" xmlns="http://www.w3.org/2000/svg">
    <path fill-rule="evenodd" clip-rule="evenodd" d="M28.3495 17.7101L30.114 15.9329C26.3572 12.5797 20.7107 12.5797 16.9539 15.9329L18.7184 17.7101C21.4962 15.3347 25.5774 15.3347 28.3495 17.7101V17.7101Z" fill="#1DABDD"/>
    <path fill-rule="evenodd" clip-rule="evenodd" d="M17.8361 18.6015L16.0773 16.8242C12.7644 20.6203 12.7644 26.3259 16.0773 30.1162L17.8361 28.339C15.4853 25.5322 15.4853 21.4083 17.8361 18.6015V18.6015Z" fill="#ABC82B"/>
    <path fill-rule="evenodd" clip-rule="evenodd" d="M23.1184 20.355V18.2441C21.9344 18.3419 20.7732 18.8423 19.8625 19.7626C18.9574 20.6771 18.4565 21.8504 18.3597 23.0525H20.4487C20.6366 21.6491 21.7295 20.5448 23.1184 20.355Z" fill="#1DABDD"/>
    <path fill-rule="evenodd" clip-rule="evenodd" d="M20.4545 23.8867H18.3655C18.4622 25.0888 18.9575 26.2564 19.8682 27.1767C20.7732 28.0969 21.9401 28.5973 23.1241 28.6951V26.59C21.7352 26.4002 20.6423 25.2959 20.4545 23.8925V23.8867Z" fill="#ABC82B"/>
    <path fill-rule="evenodd" clip-rule="evenodd" d="M36.9958 22.6275H41.7772C41.356 13.1027 33.7911 5.45882 24.365 5.0332V9.86458C31.15 10.2844 36.5803 15.7715 36.9958 22.6275Z" fill="#1DABDD"/>
    <path fill-rule="evenodd" clip-rule="evenodd" d="M29.2374 28.339L30.9963 30.1162C34.3148 26.3202 34.3148 20.6145 30.9963 16.8242L29.2374 18.6015C31.5883 21.4083 31.5883 25.5322 29.2374 28.339Z" fill="#EC69A2"/>
    <path fill-rule="evenodd" clip-rule="evenodd" d="M26.6191 23.0466H28.7081C28.6113 21.8446 28.1161 20.677 27.2054 19.7567C26.3003 18.8422 25.1334 18.3361 23.9495 18.2383V20.3491C25.3383 20.5332 26.4312 21.6432 26.6191 23.0466Z" fill="#EC69A2"/>
    <path fill-rule="evenodd" clip-rule="evenodd" d="M24.365 37.0695V41.9009C33.7911 41.4753 41.356 33.8313 41.7772 24.3066H36.9958C36.5803 31.1626 31.15 36.6554 24.365 37.0695Z" fill="#EC69A2"/>
    <path fill-rule="evenodd" clip-rule="evenodd" d="M0.310059 22.6269H10.0777C10.4876 15.771 15.9178 10.2839 22.7085 9.86405V0C10.5274 0.431373 0.742665 10.3242 0.315756 22.6269H0.310059Z" fill="#ABC82B"/>
    <path fill-rule="evenodd" clip-rule="evenodd" d="M18.7184 29.2246L16.9539 31.0019C20.7107 34.3551 26.3572 34.3551 30.114 31.0019L28.3495 29.2246C25.5717 31.6 21.4905 31.6 18.7184 29.2246Z" fill="#FFDB00"/>
    <path fill-rule="evenodd" clip-rule="evenodd" d="M23.9495 26.5842V28.6951C25.1334 28.6031 26.2946 28.0969 27.2054 27.1767C28.1104 26.2621 28.6113 25.0888 28.7081 23.8867H26.6191C26.4312 25.2901 25.3383 26.3944 23.9495 26.5842Z" fill="#FFDB00"/>
    <path fill-rule="evenodd" clip-rule="evenodd" d="M10.0778 24.3066H3.21875C3.64566 34.9874 12.1326 43.5689 22.7086 44.0002V37.0695C15.9179 36.6496 10.4933 31.1683 10.0778 24.3066V24.3066Z" fill="#FFDB00"/>
    <path fill-rule="evenodd" clip-rule="evenodd" d="M24.7805 23.4725C24.7805 24.1684 24.2227 24.7321 23.5339 24.7321C22.8452 24.7321 22.2874 24.1684 22.2874 23.4725C22.2874 22.7766 22.8452 22.2129 23.5339 22.2129C24.2227 22.2129 24.7805 22.7766 24.7805 23.4725Z" fill="#EC69A2"/>
</svg>
